<svg width="18" height="19" viewBox="0 0 18 19" fill="none" xmlns="http://www.w3.org/2000/svg">
<path fill-rule="evenodd" clip-rule="evenodd" d="M8.13699 0.506405C6.62745 0.627337 5.39077 0.926322 4.35434 1.42093C3.25479 1.94562 2.55928 2.59945 2.33098 3.32293L2.24697 3.58915L1.89465 3.77346C1.37807 4.0437 1.05735 4.26817 0.735217 4.5849C0.401777 4.91278 0.19564 5.21581 0.0814403 5.54609C0.00461448 5.76817 0 5.83258 0 6.67903C0 7.53038 0.00426223 7.58887 0.0830254 7.81676C0.319491 8.50107 1.01163 9.15694 2.00783 9.64077C2.22094 9.74428 2.40059 9.83163 2.40707 9.83487C2.41355 9.83815 2.38185 9.94109 2.33662 10.0637C2.25845 10.2756 2.2544 10.3309 2.2544 11.1841C2.2544 12.0388 2.25835 12.0922 2.33715 12.3058C2.38266 12.4292 2.46544 12.6074 2.52116 12.7018L2.62243 12.8734L2.52116 13.0451C2.46544 13.1395 2.38266 13.3176 2.33715 13.441C2.25835 13.6547 2.2544 13.7081 2.2544 14.5628C2.2544 15.4142 2.25867 15.4727 2.33743 15.7006C2.86954 17.2405 5.46404 18.3953 8.61252 18.4936C11.9915 18.5991 15.0506 17.3948 15.6594 15.7193C15.7335 15.5153 15.7419 15.4233 15.7548 14.6788C15.7712 13.7248 15.7513 13.5905 15.5291 13.1561L15.3724 12.8498L15.512 12.5889C15.5888 12.4453 15.6717 12.2593 15.6962 12.1754C15.7384 12.0315 15.7577 12.0145 16.0427 11.8712C17.0166 11.3812 17.7021 10.7115 17.9347 10.0226C17.9915 9.85413 18 9.71267 18 8.93154C18 8.0802 17.9957 8.0217 17.917 7.79381C17.6805 7.10951 16.9884 6.45364 15.9922 5.96981C15.7791 5.8663 15.5994 5.77894 15.5929 5.7757C15.5864 5.77243 15.6182 5.66948 15.6634 5.5469C15.7415 5.33502 15.7456 5.27966 15.7456 4.42652C15.7456 3.57517 15.7413 3.51668 15.6626 3.28879C15.2673 2.14497 13.7031 1.18089 11.5088 0.72884C10.7873 0.580175 10.1426 0.517245 9.21135 0.504539C8.71732 0.497817 8.23386 0.498662 8.13699 0.506405ZM7.96086 1.08738C7.05924 1.1641 5.94535 1.39453 5.26614 1.64484C4.82291 1.80818 4.22193 2.10467 3.90639 2.31567C3.54501 2.55735 3.09272 3.01514 2.9675 3.26598C2.67031 3.86138 2.78588 4.37235 3.34638 4.94136C3.94052 5.54454 4.87405 6.01545 6.09393 6.32739C8.83571 7.02852 12.1783 6.6514 14.0623 5.42836C14.4435 5.18093 14.9006 4.72505 15.0325 4.4608C15.3297 3.86539 15.2141 3.35443 14.6536 2.78542C13.7534 1.87157 12.0172 1.24491 9.93716 1.08308C9.41076 1.04212 8.46867 1.04419 7.96086 1.08738ZM1.93893 4.39294C0.943538 4.97412 0.440595 5.6831 0.573746 6.31736C0.641272 6.63915 0.785061 6.88228 1.09198 7.19387C1.99215 8.10772 3.7284 8.73438 5.80843 8.89621C6.95501 8.98539 8.19454 8.90205 9.2818 8.66265C9.66043 8.57927 10.5704 8.30489 10.5441 8.28205C10.5376 8.27638 10.4213 8.28789 10.2857 8.30763C9.85033 8.37106 8.06456 8.35726 7.50294 8.28616C5.14014 7.98711 3.33359 7.1686 2.59232 6.06128C2.31894 5.65283 2.26451 5.45563 2.24556 4.80487C2.23669 4.50001 2.21893 4.25054 2.20611 4.25054C2.19332 4.25054 2.07306 4.31463 1.93893 4.39294ZM14.9859 6.54849C14.6717 6.84758 14.3362 7.07871 13.8415 7.33687C13.487 7.52182 13.4811 7.52696 13.4409 7.68654C13.3021 8.23714 12.8078 8.82976 12.1015 9.29237C11.1958 9.88548 9.69862 10.3615 8.26027 10.5135C7.58004 10.5855 7.56077 10.5891 7.66145 10.6275C7.87787 10.7099 8.49124 10.8716 8.89433 10.9525C10.2301 11.2205 11.7474 11.2523 13.1365 11.0416C15.6732 10.6568 17.5635 9.43875 17.4425 8.26709C17.3945 7.80247 16.9791 7.258 16.3582 6.84589C16.0691 6.65401 15.3669 6.29047 15.2908 6.29332C15.2697 6.2941 15.1325 6.40894 14.9859 6.54849ZM2.88856 10.2074C2.48157 11.2156 3.67464 12.3772 5.75169 12.9948C7.46792 13.5052 9.70034 13.5719 11.5362 13.1677C11.9116 13.085 12.8254 12.8098 12.7985 12.7876C12.792 12.7822 12.6916 12.7903 12.5753 12.8057C12.4591 12.821 12.039 12.8447 11.6419 12.8581C9.08595 12.9451 6.56961 12.2517 5.3342 11.1199C5.16005 10.9604 4.80653 10.5509 4.7918 10.4917C4.79096 10.4884 4.55259 10.4376 4.26209 10.3789C3.97155 10.3201 3.56742 10.224 3.36399 10.1652C3.16057 10.1064 2.98395 10.0582 2.97155 10.058C2.95912 10.0579 2.92178 10.1251 2.88856 10.2074ZM2.92216 13.531C2.67256 14.0581 2.84678 14.6231 3.42585 15.1643C4.34927 16.0274 6.06255 16.6244 8.06284 16.78C8.96499 16.8502 9.92441 16.8138 10.8711 16.6736C13.7167 16.2521 15.6976 14.7759 15.076 13.5399C15.0231 13.4347 14.9735 13.3418 14.9659 13.3334C14.9582 13.325 14.9007 13.3664 14.838 13.4252C14.1928 14.0312 12.877 14.6049 11.5026 14.8795C8.46581 15.4863 4.99329 14.9142 3.25187 13.5202L3.0165 13.3318L2.92216 13.531Z" fill="#7C3AED"/>
</svg>
