<svg width="400" height="209" viewBox="0 0 400 209" fill="none" xmlns="http://www.w3.org/2000/svg">
<path d="M0.999999 133L8.49901 165L18.999 140L23.999 156.5L33.999 166L41.499 150L46.9996 113L52.4989 140L56.9989 125.5L66.9985 164.5L76.9985 133L82.9995 151L93.9995 119.5L100.5 141L109 151L120 192L126.5 173.5L138.999 191L145.999 157.5L154.999 182L165.499 165.5L192.999 207.5L199.499 156.5L212.499 164.5L216.999 129.5L223.499 141L227.999 107L239.499 87.5L244.5 54.9999L255.5 97.4998L262.999 33.5001L275.5 66.0001L292 72.5L300.5 28.5001L308.5 37.5001L315.999 11.5L327.499 17.5L338.999 33.5001L347.999 18.5L358.499 28L369.999 1L380.999 0.999999L393.499 45.4999L399 33.5001" stroke="#9C6BFF" stroke-width="2" stroke-linecap="round" stroke-linejoin="round"/>
</svg>
